<svg id="surface1" xmlns="http://www.w3.org/2000/svg" width="47.367" height="43.417" viewBox="0 0 47.367 43.417">
  <path id="Path_166" data-name="Path 166" d="M9.867,51.311a3.945,3.945,0,0,1-3.945-3.949V31.573a3.944,3.944,0,0,1,3.945-3.945H17.84c.055-3.523-.293-11.078-3.7-16.684a1.976,1.976,0,0,1,2.836-2.66,25.272,25.272,0,0,1,8.68,19.344V47.362a3.945,3.945,0,0,1-3.945,3.949Zm27.633,0a3.946,3.946,0,0,1-3.949-3.949V31.573A3.945,3.945,0,0,1,37.5,27.628h7.98c.047-3.523-.3-11.078-3.719-16.684h.008A1.974,1.974,0,0,1,44.6,8.284a25.265,25.265,0,0,1,8.687,19.344V47.362a3.945,3.945,0,0,1-3.945,3.949Z" transform="translate(-5.922 -7.895)" fill="#ececec"/>
</svg>
