<svg xmlns="http://www.w3.org/2000/svg" width="47.367" height="43.417" viewBox="0 0 47.367 43.417">
  <g id="surface1" transform="translate(-5.922 -7.895)">
    <path id="Path_166" data-name="Path 166" d="M9.867,7.895a3.945,3.945,0,0,0-3.945,3.949V27.633a3.944,3.944,0,0,0,3.945,3.945H17.84c.055,3.524-.293,11.078-3.7,16.684a1.976,1.976,0,0,0,2.836,2.66,25.272,25.272,0,0,0,8.68-19.344V11.844a3.945,3.945,0,0,0-3.945-3.949Zm27.633,0a3.946,3.946,0,0,0-3.949,3.949V27.633A3.945,3.945,0,0,0,37.5,31.578h7.98c.047,3.524-.3,11.078-3.719,16.684h.008a1.974,1.974,0,0,0,2.832,2.66,25.265,25.265,0,0,0,8.688-19.344V11.844a3.945,3.945,0,0,0-3.945-3.949Z" fill="#ececec"/>
  </g>
</svg>
